<mxfile host="Electron" agent="Mozilla/5.0 (Windows NT 10.0; Win64; x64) AppleWebKit/537.36 (KHTML, like Gecko) draw.io/24.7.8 Chrome/128.0.6613.36 Electron/32.0.1 Safari/537.36" version="24.7.8">
  <diagram name="Страница — 1" id="78-BBvpszZLbLK6dn0qs">
    <mxGraphModel dx="1434" dy="836" grid="1" gridSize="10" guides="1" tooltips="1" connect="1" arrows="1" fold="1" page="1" pageScale="1" pageWidth="827" pageHeight="1169" math="0" shadow="0">
      <root>
        <mxCell id="0" />
        <mxCell id="1" parent="0" />
        <mxCell id="c3pDHRM8wTqAzQ2SWhIn-1" value="Клиент" style="shape=umlActor;verticalLabelPosition=bottom;verticalAlign=top;html=1;outlineConnect=0;" vertex="1" parent="1">
          <mxGeometry x="70" y="40" width="30" height="60" as="geometry" />
        </mxCell>
        <mxCell id="c3pDHRM8wTqAzQ2SWhIn-2" value="Туроператор" style="shape=umlActor;verticalLabelPosition=bottom;verticalAlign=top;html=1;" vertex="1" parent="1">
          <mxGeometry x="70" y="555" width="30" height="60" as="geometry" />
        </mxCell>
        <mxCell id="c3pDHRM8wTqAzQ2SWhIn-3" value="Турагент" style="shape=umlActor;verticalLabelPosition=bottom;verticalAlign=top;html=1;" vertex="1" parent="1">
          <mxGeometry x="70" y="990" width="30" height="60" as="geometry" />
        </mxCell>
        <mxCell id="c3pDHRM8wTqAzQ2SWhIn-4" value="Поиск тура" style="ellipse;whiteSpace=wrap;html=1;" vertex="1" parent="1">
          <mxGeometry x="200" y="40" width="120" height="80" as="geometry" />
        </mxCell>
        <mxCell id="c3pDHRM8wTqAzQ2SWhIn-5" value="Просмотр информации о туре" style="ellipse;whiteSpace=wrap;html=1;" vertex="1" parent="1">
          <mxGeometry x="510" y="40" width="120" height="80" as="geometry" />
        </mxCell>
        <mxCell id="c3pDHRM8wTqAzQ2SWhIn-7" value="Бронирование тура" style="ellipse;whiteSpace=wrap;html=1;" vertex="1" parent="1">
          <mxGeometry x="510" y="230" width="120" height="80" as="geometry" />
        </mxCell>
        <mxCell id="c3pDHRM8wTqAzQ2SWhIn-9" value="Формирование тура" style="ellipse;whiteSpace=wrap;html=1;" vertex="1" parent="1">
          <mxGeometry x="294" y="370" width="120" height="80" as="geometry" />
        </mxCell>
        <mxCell id="c3pDHRM8wTqAzQ2SWhIn-10" value="Прогнозирование тура" style="ellipse;whiteSpace=wrap;html=1;" vertex="1" parent="1">
          <mxGeometry x="294" y="555" width="120" height="80" as="geometry" />
        </mxCell>
        <mxCell id="c3pDHRM8wTqAzQ2SWhIn-11" value="Добавление&amp;nbsp; тура" style="ellipse;whiteSpace=wrap;html=1;" vertex="1" parent="1">
          <mxGeometry x="294" y="750" width="120" height="80" as="geometry" />
        </mxCell>
        <mxCell id="c3pDHRM8wTqAzQ2SWhIn-12" value="Реализация тура" style="ellipse;whiteSpace=wrap;html=1;" vertex="1" parent="1">
          <mxGeometry x="294" y="910" width="120" height="80" as="geometry" />
        </mxCell>
        <mxCell id="c3pDHRM8wTqAzQ2SWhIn-13" value="Оформление договора" style="ellipse;whiteSpace=wrap;html=1;" vertex="1" parent="1">
          <mxGeometry x="294" y="1050" width="120" height="80" as="geometry" />
        </mxCell>
        <mxCell id="c3pDHRM8wTqAzQ2SWhIn-15" value="" style="endArrow=classic;html=1;rounded=0;entryX=0;entryY=0.5;entryDx=0;entryDy=0;" edge="1" parent="1" target="c3pDHRM8wTqAzQ2SWhIn-12">
          <mxGeometry width="50" height="50" relative="1" as="geometry">
            <mxPoint x="110" y="1030" as="sourcePoint" />
            <mxPoint x="350" y="940" as="targetPoint" />
            <Array as="points">
              <mxPoint x="200" y="1030" />
              <mxPoint x="200" y="950" />
            </Array>
          </mxGeometry>
        </mxCell>
        <mxCell id="c3pDHRM8wTqAzQ2SWhIn-16" value="" style="endArrow=classic;html=1;rounded=0;entryX=0;entryY=0.5;entryDx=0;entryDy=0;" edge="1" parent="1" target="c3pDHRM8wTqAzQ2SWhIn-13">
          <mxGeometry width="50" height="50" relative="1" as="geometry">
            <mxPoint x="110" y="1030" as="sourcePoint" />
            <mxPoint x="350" y="940" as="targetPoint" />
            <Array as="points">
              <mxPoint x="200" y="1030" />
              <mxPoint x="200" y="1090" />
            </Array>
          </mxGeometry>
        </mxCell>
        <mxCell id="c3pDHRM8wTqAzQ2SWhIn-17" value="" style="endArrow=classic;html=1;rounded=0;entryX=0;entryY=0.5;entryDx=0;entryDy=0;" edge="1" parent="1" target="c3pDHRM8wTqAzQ2SWhIn-10">
          <mxGeometry width="50" height="50" relative="1" as="geometry">
            <mxPoint x="110" y="595" as="sourcePoint" />
            <mxPoint x="360" y="640" as="targetPoint" />
          </mxGeometry>
        </mxCell>
        <mxCell id="c3pDHRM8wTqAzQ2SWhIn-18" value="" style="endArrow=classic;html=1;rounded=0;entryX=0;entryY=0.5;entryDx=0;entryDy=0;" edge="1" parent="1" target="c3pDHRM8wTqAzQ2SWhIn-11">
          <mxGeometry width="50" height="50" relative="1" as="geometry">
            <mxPoint x="190" y="590" as="sourcePoint" />
            <mxPoint x="360" y="640" as="targetPoint" />
            <Array as="points">
              <mxPoint x="190" y="790" />
            </Array>
          </mxGeometry>
        </mxCell>
        <mxCell id="c3pDHRM8wTqAzQ2SWhIn-19" value="" style="endArrow=classic;html=1;rounded=0;entryX=0;entryY=0.5;entryDx=0;entryDy=0;" edge="1" parent="1" target="c3pDHRM8wTqAzQ2SWhIn-9">
          <mxGeometry width="50" height="50" relative="1" as="geometry">
            <mxPoint x="190" y="590" as="sourcePoint" />
            <mxPoint x="360" y="640" as="targetPoint" />
            <Array as="points">
              <mxPoint x="190" y="410" />
            </Array>
          </mxGeometry>
        </mxCell>
        <mxCell id="c3pDHRM8wTqAzQ2SWhIn-20" value="" style="endArrow=classic;html=1;rounded=0;entryX=0;entryY=0.5;entryDx=0;entryDy=0;" edge="1" parent="1" target="c3pDHRM8wTqAzQ2SWhIn-4">
          <mxGeometry width="50" height="50" relative="1" as="geometry">
            <mxPoint x="110" y="80" as="sourcePoint" />
            <mxPoint x="230" y="280" as="targetPoint" />
          </mxGeometry>
        </mxCell>
        <mxCell id="c3pDHRM8wTqAzQ2SWhIn-21" value="&amp;lt;&amp;lt;Extends&amp;gt;&amp;gt;" style="endArrow=open;endSize=12;dashed=1;html=1;rounded=0;exitX=1;exitY=0.5;exitDx=0;exitDy=0;entryX=0;entryY=0.5;entryDx=0;entryDy=0;" edge="1" parent="1" source="c3pDHRM8wTqAzQ2SWhIn-4" target="c3pDHRM8wTqAzQ2SWhIn-5">
          <mxGeometry width="160" relative="1" as="geometry">
            <mxPoint x="160" y="360" as="sourcePoint" />
            <mxPoint x="320" y="360" as="targetPoint" />
          </mxGeometry>
        </mxCell>
        <mxCell id="c3pDHRM8wTqAzQ2SWhIn-22" value="&amp;lt;&amp;lt;Extends&amp;gt;&amp;gt;" style="endArrow=open;endSize=12;dashed=1;html=1;rounded=0;exitX=0;exitY=0;exitDx=0;exitDy=0;entryX=1;entryY=1;entryDx=0;entryDy=0;" edge="1" parent="1" source="c3pDHRM8wTqAzQ2SWhIn-7" target="c3pDHRM8wTqAzQ2SWhIn-4">
          <mxGeometry width="160" relative="1" as="geometry">
            <mxPoint x="160" y="360" as="sourcePoint" />
            <mxPoint x="350" y="250" as="targetPoint" />
          </mxGeometry>
        </mxCell>
        <mxCell id="c3pDHRM8wTqAzQ2SWhIn-23" value="" style="endArrow=classic;html=1;rounded=0;" edge="1" parent="1" target="c3pDHRM8wTqAzQ2SWhIn-24">
          <mxGeometry width="50" height="50" relative="1" as="geometry">
            <mxPoint x="90" y="120" as="sourcePoint" />
            <mxPoint x="90" y="200" as="targetPoint" />
          </mxGeometry>
        </mxCell>
        <mxCell id="c3pDHRM8wTqAzQ2SWhIn-24" value="Оставить пожелание на сайте" style="ellipse;whiteSpace=wrap;html=1;" vertex="1" parent="1">
          <mxGeometry x="30" y="170" width="120" height="80" as="geometry" />
        </mxCell>
        <mxCell id="c3pDHRM8wTqAzQ2SWhIn-25" value="" style="endArrow=classic;html=1;rounded=0;exitX=0.5;exitY=1;exitDx=0;exitDy=0;entryX=0.5;entryY=0;entryDx=0;entryDy=0;" edge="1" parent="1" source="c3pDHRM8wTqAzQ2SWhIn-5" target="c3pDHRM8wTqAzQ2SWhIn-7">
          <mxGeometry width="50" height="50" relative="1" as="geometry">
            <mxPoint x="220" y="380" as="sourcePoint" />
            <mxPoint x="270" y="330" as="targetPoint" />
          </mxGeometry>
        </mxCell>
      </root>
    </mxGraphModel>
  </diagram>
</mxfile>
